<?xml version="1.0" encoding="utf-8"?>
<!-- Svg Vector Icons : http://www.onlinewebfonts.com/icon -->
<!DOCTYPE svg PUBLIC "-//W3C//DTD SVG 1.1//EN" "http://www.w3.org/Graphics/SVG/1.1/DTD/svg11.dtd">
<svg version="1.1" xmlns="http://www.w3.org/2000/svg" xmlns:xlink="http://www.w3.org/1999/xlink" x="0px" y="0px" viewBox="0 0 256 256" enable-background="new 0 0 256 256" xml:space="preserve">
<metadata> Svg Vector Icons : http://www.onlinewebfonts.com/icon </metadata>
<g><g><path fill="#b6b3b3"  d="M10,195.4h143.3v16.9H10V195.4z"/><path fill="#b6b3b3"  d="M203.9,195.4H246v16.9h-42.1V195.4z"/><path fill="#b6b3b3"  d="M195.4,228.9c0,9.5-7.5,17.1-16.9,17.1l0,0c-9.3,0-16.9-7.7-16.9-17.1v-50c0-9.5,7.5-17.1,16.9-17.1l0,0c9.3,0,16.9,7.7,16.9,17.1V228.9z"/><path fill="#b6b3b3"  d="M10,119.6h42.1v16.9H10V119.6z"/><path fill="#b6b3b3"  d="M102.7,119.6H246v16.9H102.7V119.6z"/><path fill="#b6b3b3"  d="M94.3,153c0,9.5-7.5,17.1-16.9,17.1l0,0c-9.3,0-16.9-7.7-16.9-17.1v-50c0-9.5,7.5-17.1,16.9-17.1l0,0c9.3,0,16.9,7.7,16.9,17.1V153z"/><path fill="#b6b3b3"  d="M10,43.7h143.3v16.9H10V43.7z"/><path fill="#b6b3b3"  d="M203.9,43.7H246v16.9h-42.1V43.7z"/><path fill="#b6b3b3"  d="M195.4,77.2c0,9.5-7.5,17.1-16.9,17.1l0,0c-9.3,0-16.9-7.7-16.9-17.1v-50c0-9.5,7.5-17.1,16.9-17.1l0,0c9.3,0,16.9,7.7,16.9,17.1V77.2z"/></g></g>
</svg>